HIERARCHY
ROOT Hips
{
	OFFSET -3.958830 18.904000 13.208200
	CHANNELS 6 Xposition Yposition Zposition Zrotation Yrotation Xrotation 
	JOINT LHipJoint
	{
		OFFSET 0.000000 0.000000 0.000000
		CHANNELS 3 Zrotation Yrotation Xrotation
		JOINT LeftUpLeg
		{
			OFFSET 1.800000 -1.400000 0.085000
			CHANNELS 3 Zrotation Yrotation Xrotation
			JOINT LeftLeg
			{
				OFFSET 2.215000 -6.000000 0.000000
				CHANNELS 3 Zrotation Yrotation Xrotation
				JOINT LeftFoot
				{
					OFFSET 2.500000 -6.900000 0.000000
					CHANNELS 3 Zrotation Yrotation Xrotation
					JOINT LeftToeBase
					{
						OFFSET 0.200000 -0.500000 1.950000
						CHANNELS 3 Zrotation Yrotation Xrotation
						End Site
						{
							OFFSET 0.000000 0.000000 0.000000
						}
					}
				}
			}
		}
	}
	JOINT RHipJoint
	{
		OFFSET 0.000000 0.000000 0.000000
		CHANNELS 3 Zrotation Yrotation Xrotation
		JOINT RightUpLeg
		{
			OFFSET -1.800000 -1.400000 0.085000
			CHANNELS 3 Zrotation Yrotation Xrotation
			JOINT RightLeg
			{
				OFFSET -2.215000 -6.000000 0.000000
				CHANNELS 3 Zrotation Yrotation Xrotation
				JOINT RightFoot
				{
					OFFSET -2.500000 -6.900000 0.000000
					CHANNELS 3 Zrotation Yrotation Xrotation
					JOINT RightToeBase
					{
						OFFSET -0.200000 -0.500000 1.950000
						CHANNELS 3 Zrotation Yrotation Xrotation
						End Site
						{
							OFFSET 0.000000 0.000000 0.000000
						}
					}
				}
			}
		}
	}
	JOINT LowerBack
	{
		OFFSET 0.000000 0.000000 0.000000
		CHANNELS 3 Zrotation Yrotation Xrotation
		JOINT Spine
		{
			OFFSET -0.087000 1.940000 -0.288900
			CHANNELS 3 Zrotation Yrotation Xrotation
			JOINT Spine1
			{
				OFFSET 0.000000 1.950000 0.060000
				CHANNELS 3 Zrotation Yrotation Xrotation
				JOINT Neck
				{
					OFFSET 0.000000 0.000000 0.000000
					CHANNELS 3 Zrotation Yrotation Xrotation
					JOINT Neck1
					{
						OFFSET 0.000000 1.600000 0.340000
						CHANNELS 3 Zrotation Yrotation Xrotation
						JOINT Head
						{
							OFFSET 0.000000 1.667000 -0.240000
							CHANNELS 3 Zrotation Yrotation Xrotation
							End Site
							{
								OFFSET 0.000000 0.000000 0.000000
							}
						}
					}
				}
				JOINT LeftShoulder
				{
					OFFSET 0.000000 0.000000 0.000000
					CHANNELS 3 Zrotation Yrotation Xrotation
					JOINT LeftArm
					{
						OFFSET 2.700000 1.550000 -0.730000
						CHANNELS 3 Zrotation Yrotation Xrotation
						JOINT LeftForeArm
						{
							OFFSET 5.450000 0.000000 0.000000
							CHANNELS 3 Zrotation Yrotation Xrotation
							JOINT LeftHand
							{
								OFFSET 3.450000 0.000000 0.000000
								CHANNELS 3 Zrotation Yrotation Xrotation
								JOINT LeftHandIndex1
								{
									OFFSET 0.750000 0.000000 0.000000
									CHANNELS 3 Zrotation Yrotation Xrotation
									End Site
									{
										OFFSET 0.000000 0.000000 0.000000
									}
								}
							}
						}
					}
				}
				JOINT RightShoulder
				{
					OFFSET 0.000000 0.000000 0.000000
					CHANNELS 3 Zrotation Yrotation Xrotation
					JOINT RightArm
					{
						OFFSET -2.700000 1.550000 -0.730000
						CHANNELS 3 Zrotation Yrotation Xrotation
						JOINT RightForeArm
						{
							OFFSET -5.450000 0.000000 0.000000
							CHANNELS 3 Zrotation Yrotation Xrotation
							JOINT RightHand
							{
								OFFSET -3.450000 0.000000 0.000000
								CHANNELS 3 Zrotation Yrotation Xrotation
								JOINT RightHandIndex1
								{
									OFFSET -0.750000 0.000000 0.000000
									CHANNELS 3 Zrotation Yrotation Xrotation
									End Site
									{
										OFFSET 0.000000 0.000000 0.000000
									}
								}
							}
						}
					}
				}
			}
		}
	}
}
MOTION
Frames: 11
Frame Time: 0.016667
-0.334280 16.404350 -1.169270 0.711040 -15.985910 5.882606 -15.040999 13.512789 2.639740 1.360764 -2.716471 -21.941085 6.288966 2.452810 17.161858 -0.668676 3.222783 3.580049 0.323020 0.158780 0.445130 18.436324 -10.668596 2.840206 -3.371965 1.097486 -11.840234 6.706424 -3.806007 5.903863 -0.011181 -3.436455 3.141245 0.305300 0.582760 0.374420 -3.874091 -2.364449 -6.523474 8.015840 2.781404 4.504374 -4.212748 3.827950 5.701039 -2.778931 -10.047430 -9.729762 -22.162663 31.206143 16.795132 -4.943490 27.875720 1.052800 -0.774585 3.053846 4.247342 -24.670876 -1.025904 2.019330 -43.195145 -35.488502 12.762645 -4.151645 3.833646 -0.019380 0.644030 -0.244120 0.152840 6.631646 3.859489 3.750319 20.074544 1.358485 1.884251 80.475113 46.504318 32.866313 2.060108 -2.477989 -0.275440 0.050210 -0.101090 -0.166420 
-0.309160 16.418900 -1.174850 0.886029 -15.041785 5.796367 -15.016553 13.462132 2.706416 0.437754 -2.736334 -22.040262 6.248807 2.478115 17.372562 -0.631895 3.161381 3.594886 0.302410 0.118610 0.432610 18.442459 -10.761072 2.846692 -3.543357 1.128995 -12.189306 6.556584 -3.844184 6.358022 -0.009230 -3.369312 3.171713 0.253050 0.544170 0.353890 -3.913350 -2.119736 -6.610599 8.223274 3.497693 5.467961 -4.517611 4.551835 5.080760 -2.063870 -10.093573 -9.907371 -21.919692 30.178602 18.109995 -5.201660 27.125930 1.040350 -0.733596 3.644424 4.416958 -26.721964 0.610519 1.162136 -42.825274 -35.352876 12.347000 -4.076197 3.801127 0.023500 0.585690 -0.219880 0.146940 5.192638 3.804387 3.736769 23.233040 2.967665 1.854182 81.039809 46.688022 33.480305 2.097766 -2.442207 -0.266230 0.043210 -0.098330 -0.164230 
-0.283300 16.437950 -1.183990 0.892195 -13.674634 5.513827 -14.979581 13.420100 2.778345 -0.278448 -2.747602 -22.457081 5.881545 2.722100 18.860716 -0.567857 3.196137 3.554817 0.314680 0.116930 0.446680 18.452512 -10.868126 2.873577 -3.670014 1.130951 -12.266105 6.600960 -3.921254 6.807971 -0.033293 -3.316760 3.189476 0.212330 0.462860 0.329740 -3.976648 -1.857696 -6.741133 8.834870 4.158204 7.086180 -5.114933 5.297957 4.074903 -1.255559 -10.174555 -10.130331 -21.828984 28.898022 19.694150 -5.678400 26.209320 0.519160 -0.844429 4.407150 4.416299 -28.565571 2.044024 0.328949 -42.842731 -35.868984 12.398739 -3.960868 3.786873 0.078650 0.496980 -0.167910 0.145150 3.675606 3.623747 3.820134 26.702664 4.119046 1.683946 80.512622 46.929291 33.470426 2.144722 -2.416542 -0.237940 0.020620 -0.123270 -0.163610 
-0.260040 16.461250 -1.195930 0.904541 -11.704535 4.844378 -14.964190 13.413851 2.862644 -0.922054 -2.761915 -23.191447 5.526930 3.197519 22.016815 -0.464088 3.439107 3.432762 0.323160 0.113180 0.461810 18.439267 -10.957993 2.897609 -3.727924 1.012176 -11.700000 6.477031 -3.993563 7.102266 -0.065133 -3.289197 3.211990 0.164130 0.372580 0.294990 -3.980274 -1.698944 -6.905513 9.291668 4.749029 9.186910 -5.447785 6.065414 3.217218 -0.276096 -10.243810 -10.536747 -21.865335 27.343990 21.670118 -6.382910 25.211430 -0.068100 -1.527866 4.692177 4.313589 -30.028960 3.114480 -0.550203 -43.041725 -36.407686 12.521794 -3.844042 3.752130 0.136800 0.401480 -0.114210 0.139780 2.423738 3.989400 4.258780 29.731548 4.576855 1.016092 79.182997 47.460522 32.946102 2.203913 -2.373430 -0.208660 -0.001380 -0.151710 -0.164660 
-0.236500 16.471330 -1.207770 0.849683 -8.864074 4.486481 -14.953289 13.322825 2.975571 -1.537452 -2.961266 -24.745038 5.372845 3.784131 26.325806 -0.340941 3.934812 3.223148 0.326100 0.107410 0.456310 18.443258 -11.012061 2.905822 -3.753134 0.948780 -11.211160 6.515102 -4.066841 7.218359 -0.090508 -3.305941 3.209763 0.130540 0.328730 0.295320 -4.030786 -1.477275 -7.046343 10.013182 5.147035 10.639674 -5.867402 6.631129 2.557457 0.366463 -10.164335 -10.639548 -21.327325 25.963084 23.073993 -6.577330 24.072770 -0.263280 -2.050710 5.155809 4.158507 -30.766060 4.186755 -1.097402 -44.486990 -37.642022 13.440962 -3.783357 3.768952 0.159330 0.353010 -0.084280 0.140200 1.605333 3.967426 4.414795 31.843899 5.053551 0.629574 77.602369 47.749202 32.215090 2.233051 -2.355883 -0.176270 -0.024650 -0.158830 -0.154890 
-0.212610 16.479020 -1.216850 0.565657 -5.310110 4.125226 -14.952374 13.196838 3.112333 -1.853060 -3.273545 -26.560041 5.311035 4.489597 31.273731 -0.227303 4.673337 2.931828 0.319760 0.087970 0.442380 18.453442 -11.023100 2.902665 -3.513079 0.847187 -10.441043 6.552042 -4.142110 7.229264 -0.111539 -3.346252 3.203150 0.111670 0.306140 0.282060 -4.095246 -1.289173 -7.195647 11.022976 5.263239 11.958496 -6.227075 6.968518 1.846061 0.840496 -10.057826 -10.558362 -20.713787 24.692996 24.175511 -6.403480 22.730730 -0.542690 -3.040406 5.741687 3.831958 -30.925754 5.289656 -1.457280 -46.232530 -39.496890 14.844031 -3.748174 3.769813 0.192260 0.316690 -0.075940 0.133910 1.529702 3.665759 4.505733 32.568974 4.943948 0.343130 77.239681 48.458965 32.511662 2.246031 -2.324816 -0.176420 -0.020960 -0.145020 -0.158330 
-0.185130 16.485060 -1.222140 0.046180 -1.290543 3.849243 -14.948980 13.048757 3.252970 -2.004743 -3.649607 -28.232191 5.478432 5.085063 35.887000 -0.078365 5.438096 2.654494 0.314250 0.084160 0.423290 18.478111 -11.024392 2.880419 -2.913673 0.732776 -9.832555 6.307790 -4.177799 7.524708 -0.123174 -3.371563 3.212505 0.099930 0.303450 0.263680 -4.198460 -1.090619 -7.322912 12.480451 5.137879 12.813832 -6.683188 7.091631 1.302102 1.188146 -9.866768 -10.432577 -19.902704 23.409867 25.036067 -5.906640 21.391760 -0.351830 -3.801632 6.320889 3.515745 -30.869391 6.045928 -1.564902 -48.295009 -41.049176 16.415237 -3.719627 3.776426 0.196480 0.296940 -0.076580 0.141060 1.448709 3.160469 4.598553 32.974921 4.456809 0.075639 76.953711 49.341929 32.941515 2.262299 -2.309062 -0.172470 -0.010090 -0.146440 -0.145700 
-0.158050 16.493920 -1.226310 -0.475751 2.771818 3.581697 -14.950025 12.916994 3.387586 -2.165554 -4.045806 -29.522036 5.754710 5.494525 39.652272 0.044732 6.103748 2.421492 0.322970 0.093110 0.423680 18.499283 -11.028541 2.835148 -2.250280 0.661918 -9.597692 5.804674 -4.201129 8.333393 -0.129919 -3.370563 3.221198 0.103710 0.296170 0.247750 -4.297632 -0.922155 -7.418907 13.826148 4.842795 13.459588 -7.053344 7.034998 0.739660 1.394959 -9.731522 -10.155489 -19.225975 22.308505 25.396735 -5.663530 20.227250 -0.568710 -4.773102 6.923271 3.146664 -30.460836 6.827546 -1.586875 -50.076898 -42.021715 17.681131 -3.697633 3.775557 0.204620 0.279720 -0.073260 0.148910 1.836734 2.572673 4.532728 32.628799 4.010163 -0.064202 76.784180 50.110420 33.427376 2.275248 -2.296105 -0.174140 0.003770 -0.155880 -0.141110 
-0.132510 16.498930 -1.225540 -0.917731 7.137136 3.419508 -14.956483 12.803704 3.492574 -2.245600 -4.402052 -30.337886 5.686534 5.839494 42.104977 0.137638 6.576069 2.269104 0.318440 0.088120 0.417860 18.513253 -11.050994 2.775274 -1.508991 0.643265 -9.721299 5.037607 -4.216071 9.681930 -0.119092 -3.369282 3.232945 0.102900 0.308310 0.241690 -4.392562 -0.755838 -7.469440 14.898116 4.484608 13.547589 -7.419058 6.791469 0.390151 1.598399 -9.403072 -9.738680 -18.071989 21.137181 25.540173 -5.589580 19.324710 -0.425860 -5.756442 7.454406 2.756485 -29.542273 7.491647 -1.444277 -52.299814 -42.866503 19.156577 -3.705553 3.782144 0.193640 0.287810 -0.083770 0.155420 2.243434 1.798679 4.335419 32.213169 3.678712 -0.051269 76.440759 50.363060 33.502966 2.275667 -2.295238 -0.177470 0.013840 -0.159000 -0.135560 
-0.106230 16.496400 -1.224530 -1.045690 11.757723 3.316721 -14.984844 12.717989 3.604351 -2.619705 -4.853085 -30.742169 5.399780 6.088778 43.635541 0.192863 6.901898 2.181563 0.294660 0.061710 0.394040 18.499647 -11.079517 2.684783 -1.065377 0.749569 -10.298438 4.121799 -4.251959 11.861716 -0.084516 -3.395807 3.235875 0.101900 0.347430 0.232780 -4.435341 -0.652066 -7.493132 15.285279 4.183147 13.393744 -7.430086 6.471686 0.146237 1.740986 -8.923868 -9.253210 -16.646835 19.816583 25.317577 -5.490870 18.390710 0.288310 -6.810302 7.825716 2.299691 -28.255641 7.710941 -1.103716 -54.598564 -43.593953 20.716476 -3.739641 3.789148 0.170250 0.318970 -0.119540 0.162190 2.908189 1.018359 4.155072 31.175999 3.005498 0.007927 77.018908 50.732027 34.131078 2.268961 -2.304750 -0.198930 0.029160 -0.150090 -0.130320 
-0.074630 16.495240 -1.221240 -1.244527 16.751486 3.043226 -15.008973 12.687294 3.649047 -2.800789 -5.143768 -30.331875 4.645433 6.325291 43.826830 0.204809 6.993595 2.165489 0.276220 0.043290 0.381750 18.480600 -11.132009 2.604040 -0.605384 0.955130 -11.059991 3.084029 -4.300027 14.796507 -0.060245 -3.469499 3.212203 0.102240 0.370850 0.229010 -4.505805 -0.577750 -7.477371 15.924786 3.668807 13.117722 -7.613612 5.924616 0.058992 1.891877 -8.428318 -8.750910 -15.350533 18.409989 25.168374 -5.668180 17.459580 0.703570 -7.804467 8.075349 1.761886 -26.800058 7.369773 -0.643118 -56.486912 -43.793514 21.906259 -3.779927 3.792225 0.142810 0.346810 -0.148350 0.156950 3.472381 0.186504 3.984088 30.139120 2.217953 0.057427 77.687887 50.882250 34.641770 2.259625 -2.317599 -0.208290 0.035400 -0.139260 -0.129340 
